<svg width="700" height="500" viewBox="0 0 700 500" fill="none" xmlns="http://www.w3.org/2000/svg">
<text fill="var(--ifm-color-content)" xml:space="preserve" style="white-space: pre" font-family="Inconsolata" font-size="14" font-weight="900" letter-spacing="0em"><tspan x="531.5" y="197.183">Kubernetes </tspan><tspan x="542" y="212.183">cluster</tspan></text>
<rect x="510" y="176" width="113" height="119" rx="6" stroke="var(--ifm-color-content)" stroke-width="2"/>
<text fill="var(--ifm-color-content)" xml:space="preserve" style="white-space: pre" font-family="Inconsolata" font-size="14" font-weight="900" letter-spacing="0em"><tspan x="102.5" y="272.683">Fleet Repository</tspan></text>
<text fill="var(--ifm-color-primary)" xml:space="preserve" style="white-space: pre" font-family="Inconsolata" font-size="14" font-weight="900" letter-spacing="0em"><tspan x="141.5" y="309.183">App-1</tspan></text>
<path d="M89 288H88V289V320V321H89H219C225.075 321 230 316.075 230 310V289V288H229H89Z" stroke="var(--ifm-color-primary)" stroke-width="2"/>
<text fill="var(--ifm-color-info)" xml:space="preserve" style="white-space: pre" font-family="Inconsolata" font-size="14" font-weight="900" letter-spacing="0em"><tspan x="141.5" y="352.183">App-2</tspan></text>
<path d="M89 331H88V332V363V364H89H219C225.075 364 230 359.075 230 353V332V331H229H89Z" stroke="var(--ifm-color-info)" stroke-width="2"/>
<path d="M89 374H88V375V406V407H89H219C225.075 407 230 402.075 230 396V375V374H229H89Z" stroke="var(--ifm-color-danger)" stroke-width="2"/>
<text fill="var(--ifm-color-danger)" xml:space="preserve" style="white-space: pre" font-family="Inconsolata" font-size="14" font-weight="900" letter-spacing="0em"><tspan x="141.5" y="395.183">App-3</tspan></text>
<rect x="76" y="249" width="165" height="169" rx="6" stroke="var(--ifm-color-content)" stroke-width="2"/>
<text fill="var(--ifm-color-primary)" xml:space="preserve" style="white-space: pre" font-family="Inconsolata" font-size="14" font-weight="900" letter-spacing="0em"><tspan x="310.5" y="379.683">App-1 Repository</tspan></text>
<rect x="289" y="358" width="155" height="35" rx="6" stroke="var(--ifm-color-primary)" stroke-width="2"/>
<text fill="var(--ifm-color-info)" xml:space="preserve" style="white-space: pre" font-family="Inconsolata" font-size="14" font-weight="900" letter-spacing="0em"><tspan x="120.5" y="190.183">App-2 Repository</tspan></text>
<rect x="99" y="168" width="155" height="35" rx="6" stroke="var(--ifm-color-info)" stroke-width="2"/>
<text fill="var(--ifm-color-danger)" xml:space="preserve" style="white-space: pre" font-family="Inconsolata" font-size="14" font-weight="900" letter-spacing="0em"><tspan x="183.5" y="104.183">App-3 Repository</tspan></text>
<rect x="162" y="82" width="155" height="35" rx="6" stroke="var(--ifm-color-danger)" stroke-width="2"/>
<path d="M273.497 196.585C272.716 196.31 271.859 196.721 271.585 197.503C271.31 198.284 271.721 199.141 272.503 199.415L273.497 196.585ZM310.649 212.352C311.396 211.994 311.711 211.098 311.352 210.351L305.51 198.18C305.152 197.433 304.256 197.119 303.509 197.477C302.762 197.836 302.447 198.732 302.806 199.479L307.999 210.297L297.18 215.49C296.433 215.848 296.119 216.744 296.477 217.491C296.836 218.238 297.732 218.553 298.479 218.194L310.649 212.352ZM272.503 199.415L309.503 212.415L310.497 209.585L273.497 196.585L272.503 199.415Z" fill="var(--ifm-color-content)"/>
<path d="M365.5 343C365.5 343.828 366.172 344.5 367 344.5C367.828 344.5 368.5 343.828 368.5 343L365.5 343ZM368.061 298.939C367.475 298.354 366.525 298.354 365.939 298.939L356.393 308.485C355.808 309.071 355.808 310.021 356.393 310.607C356.979 311.192 357.929 311.192 358.515 310.607L367 302.121L375.485 310.607C376.071 311.192 377.021 311.192 377.607 310.607C378.192 310.021 378.192 309.071 377.607 308.485L368.061 298.939ZM368.5 343L368.5 300L365.5 300L365.5 343L368.5 343Z" fill="var(--ifm-color-content)"/>
<path d="M252.636 287.545C251.833 287.746 251.344 288.56 251.545 289.364C251.746 290.167 252.56 290.656 253.364 290.455L252.636 287.545ZM318.286 273.772C318.712 273.061 318.482 272.14 317.772 271.714L306.196 264.768C305.485 264.342 304.564 264.572 304.138 265.283C303.711 265.993 303.942 266.914 304.652 267.341L314.942 273.514L308.768 283.804C308.342 284.515 308.572 285.436 309.283 285.862C309.993 286.289 310.914 286.058 311.341 285.348L318.286 273.772ZM253.364 290.455L317.364 274.455L316.636 271.545L252.636 287.545L253.364 290.455Z" fill="var(--ifm-color-content)"/>
<path d="M417 234.5C416.172 234.5 415.5 235.172 415.5 236C415.5 236.828 416.172 237.5 417 237.5V234.5ZM489.061 237.061C489.646 236.475 489.646 235.525 489.061 234.939L479.515 225.393C478.929 224.808 477.979 224.808 477.393 225.393C476.808 225.979 476.808 226.929 477.393 227.515L485.879 236L477.393 244.485C476.808 245.071 476.808 246.021 477.393 246.607C477.979 247.192 478.929 247.192 479.515 246.607L489.061 237.061ZM417 237.5H488V234.5H417V237.5Z" fill="var(--ifm-color-content)"/>
<path d="M324.31 131.269C323.906 130.546 322.992 130.286 322.269 130.69C321.546 131.094 321.286 132.008 321.69 132.731L324.31 131.269ZM346.591 176.443C347.388 176.669 348.217 176.206 348.443 175.409L352.126 162.421C352.352 161.624 351.889 160.795 351.092 160.569C350.295 160.343 349.466 160.806 349.24 161.603L345.966 173.148L334.421 169.874C333.624 169.648 332.795 170.111 332.569 170.908C332.343 171.705 332.806 172.534 333.603 172.76L346.591 176.443ZM321.69 132.731L345.69 175.731L348.31 174.269L324.31 131.269L321.69 132.731Z" fill="var(--ifm-color-content)"/>
<path d="M594.226 237.012C593.849 235.819 592.943 234.85 591.811 234.254L568.792 223.373C568.188 223.075 567.508 223 566.905 223C566.301 223 565.622 223 565.018 223.149L541.998 234.105C540.866 234.627 540.036 235.595 539.734 236.862L534.074 261.383C533.847 262.65 534.149 263.917 534.904 264.96L550.829 284.412C551.734 285.307 553.017 285.903 554.301 285.977H579.66C581.018 286.126 582.301 285.53 583.132 284.412L599.057 264.96C599.811 263.917 600.113 262.65 599.962 261.383L594.226 237.012V237.012Z" fill="#326DE6"/>
<path d="M590.645 260.921C590.57 260.921 590.495 260.921 590.495 260.845C590.495 260.769 590.344 260.769 590.194 260.769C589.893 260.694 589.592 260.694 589.291 260.694C589.14 260.694 588.989 260.694 588.839 260.618H588.764C587.936 260.542 587.033 260.391 586.205 260.164C585.979 260.088 585.753 259.861 585.678 259.634C585.753 259.634 585.678 259.634 585.678 259.634L585.076 259.482C585.377 257.286 585.226 255.015 584.775 252.819C584.248 250.624 583.345 248.504 582.141 246.611L582.592 246.157V246.081C582.592 245.854 582.667 245.551 582.818 245.4C583.495 244.794 584.173 244.34 584.925 243.886C585.076 243.81 585.226 243.734 585.377 243.658C585.678 243.507 585.904 243.356 586.205 243.204C586.28 243.128 586.355 243.128 586.431 243.053C586.506 242.977 586.431 242.977 586.431 242.901C587.108 242.371 587.258 241.463 586.732 240.781C586.506 240.478 586.054 240.251 585.678 240.251C585.302 240.251 584.925 240.403 584.624 240.63L584.549 240.706C584.474 240.781 584.398 240.857 584.323 240.857C584.097 241.084 583.872 241.311 583.721 241.538C583.646 241.69 583.495 241.766 583.42 241.841C582.893 242.447 582.216 243.053 581.538 243.507C581.388 243.583 581.237 243.658 581.087 243.658C581.012 243.658 580.861 243.658 580.786 243.583H580.711L580.109 243.961C579.506 243.356 578.829 242.75 578.227 242.144C575.442 239.948 571.98 238.586 568.443 238.207L568.368 237.601V237.677C568.142 237.526 568.066 237.299 567.991 237.071C567.991 236.239 567.991 235.406 568.142 234.497V234.422C568.142 234.27 568.217 234.119 568.217 233.967C568.292 233.664 568.292 233.362 568.368 233.059V232.604C568.443 231.847 567.841 231.09 567.088 231.015C566.636 230.939 566.185 231.166 565.809 231.544C565.508 231.847 565.357 232.226 565.357 232.604V232.983C565.357 233.286 565.432 233.589 565.508 233.892C565.583 234.043 565.583 234.194 565.583 234.346V234.422C565.733 235.254 565.733 236.087 565.733 236.996C565.658 237.223 565.583 237.45 565.357 237.601V237.753L565.282 238.359C564.454 238.434 563.626 238.586 562.723 238.737C559.186 239.494 555.949 241.387 553.466 244.037L553.014 243.734H552.939C552.863 243.734 552.788 243.81 552.638 243.81C552.487 243.81 552.337 243.734 552.186 243.658C551.509 243.128 550.831 242.523 550.305 241.917C550.229 241.766 550.079 241.69 550.003 241.614C549.778 241.387 549.627 241.16 549.401 240.933C549.326 240.857 549.251 240.857 549.176 240.781C549.1 240.706 549.1 240.706 549.1 240.706C548.799 240.478 548.423 240.327 548.047 240.327C547.595 240.327 547.219 240.478 546.993 240.857C546.541 241.538 546.692 242.447 547.294 242.977C547.369 242.977 547.369 243.053 547.369 243.053C547.369 243.053 547.52 243.204 547.595 243.204C547.821 243.356 548.122 243.507 548.423 243.658C548.573 243.734 548.724 243.81 548.875 243.886C549.627 244.34 550.38 244.794 550.982 245.4C551.132 245.551 551.283 245.854 551.208 246.081V246.005L551.659 246.46C551.584 246.611 551.509 246.687 551.433 246.838C549.1 250.548 548.122 254.939 548.799 259.255L548.197 259.406C548.197 259.482 548.122 259.482 548.122 259.482C548.047 259.709 547.821 259.861 547.595 260.012C546.767 260.239 545.939 260.391 545.036 260.466C544.886 260.466 544.735 260.466 544.585 260.542C544.284 260.542 543.982 260.618 543.681 260.618C543.606 260.618 543.531 260.694 543.38 260.694C543.305 260.694 543.305 260.694 543.23 260.769C542.402 260.921 541.875 261.678 542.026 262.511C542.176 263.192 542.854 263.646 543.531 263.571C543.681 263.571 543.757 263.571 543.907 263.495C543.982 263.495 543.982 263.495 543.982 263.419C543.982 263.343 544.208 263.419 544.284 263.419C544.585 263.343 544.886 263.192 545.111 263.116C545.262 263.041 545.412 262.965 545.563 262.965H545.638C546.466 262.662 547.219 262.435 548.122 262.283H548.197C548.423 262.283 548.649 262.359 548.799 262.511C548.875 262.511 548.875 262.586 548.875 262.586L549.552 262.511C550.681 265.993 552.788 269.098 555.723 271.369C556.401 271.899 557.003 272.353 557.756 272.732L557.379 273.262C557.379 273.337 557.454 273.337 557.454 273.337C557.605 273.564 557.605 273.867 557.53 274.094C557.229 274.852 556.777 275.609 556.326 276.29V276.366C556.25 276.517 556.175 276.593 556.024 276.744C555.874 276.896 555.723 277.199 555.498 277.502C555.422 277.577 555.422 277.653 555.347 277.729C555.347 277.729 555.347 277.804 555.272 277.804C554.896 278.561 555.197 279.47 555.874 279.849C556.024 279.924 556.25 280 556.401 280C557.003 280 557.53 279.621 557.831 279.091C557.831 279.091 557.831 279.016 557.906 279.016C557.906 278.94 557.981 278.864 558.057 278.789C558.132 278.486 558.282 278.259 558.358 277.956L558.508 277.502C558.734 276.669 559.11 275.912 559.487 275.154C559.637 274.927 559.863 274.776 560.089 274.7C560.164 274.7 560.164 274.7 560.164 274.624L560.465 274.019C562.572 274.852 564.755 275.23 567.013 275.23C568.368 275.23 569.722 275.079 571.077 274.7C571.905 274.549 572.733 274.246 573.485 274.019L573.786 274.549C573.862 274.549 573.862 274.549 573.862 274.624C574.087 274.7 574.313 274.852 574.464 275.079C574.84 275.836 575.216 276.593 575.442 277.426V277.502L575.593 277.956C575.668 278.259 575.743 278.561 575.894 278.789C575.969 278.864 575.969 278.94 576.044 279.016C576.044 279.016 576.044 279.091 576.12 279.091C576.421 279.621 576.947 280 577.55 280C577.775 280 577.926 279.924 578.152 279.849C578.453 279.697 578.754 279.394 578.829 279.016C578.904 278.637 578.904 278.259 578.754 277.88C578.754 277.804 578.679 277.804 578.679 277.804C578.679 277.729 578.603 277.653 578.528 277.577C578.377 277.274 578.227 277.047 578.001 276.82C577.926 276.669 577.851 276.593 577.7 276.442V276.29C577.173 275.609 576.797 274.852 576.496 274.094C576.421 273.867 576.421 273.564 576.571 273.337C576.571 273.262 576.646 273.262 576.646 273.262L576.421 272.656C580.259 270.309 583.194 266.675 584.549 262.359L585.151 262.435C585.226 262.435 585.226 262.359 585.226 262.359C585.377 262.208 585.603 262.132 585.828 262.132H585.904C586.732 262.283 587.56 262.511 588.312 262.813H588.387C588.538 262.889 588.688 262.965 588.839 262.965C589.14 263.116 589.366 263.268 589.667 263.343C589.742 263.343 589.817 263.419 589.968 263.419C590.043 263.419 590.043 263.419 590.118 263.495C590.269 263.571 590.344 263.571 590.495 263.571C591.172 263.571 591.774 263.116 592 262.511C591.925 261.678 591.323 261.072 590.645 260.921V260.921ZM568.894 258.574L566.862 259.558L564.83 258.574L564.303 256.378L565.733 254.561H567.991L569.421 256.378L568.894 258.574V258.574ZM581.162 253.652C581.538 255.242 581.614 256.832 581.463 258.422L574.313 256.378C573.636 256.227 573.26 255.545 573.41 254.864C573.485 254.637 573.561 254.485 573.711 254.334L579.356 249.185C580.184 250.548 580.786 252.062 581.162 253.652V253.652ZM577.098 246.384L570.926 250.775C570.4 251.078 569.647 251.002 569.271 250.472C569.12 250.321 569.045 250.17 569.045 249.942L568.593 242.296C571.905 242.674 574.84 244.113 577.098 246.384V246.384ZM563.475 242.523L564.981 242.22L564.604 249.791C564.604 250.472 564.002 251.002 563.325 251.002C563.099 251.002 562.949 250.927 562.723 250.851L556.476 246.384C558.433 244.491 560.841 243.128 563.475 242.523ZM554.293 249.185L559.863 254.182C560.39 254.637 560.465 255.394 560.013 255.924C559.863 256.151 559.712 256.227 559.411 256.302L552.111 258.422C551.885 255.242 552.638 251.987 554.293 249.185V249.185ZM553.014 261.981L560.465 260.694C561.067 260.694 561.669 261.072 561.744 261.678C561.82 261.905 561.82 262.208 561.669 262.435L558.809 269.4C556.175 267.659 554.068 265.009 553.014 261.981V261.981ZM570.099 271.369C569.045 271.596 567.991 271.747 566.862 271.747C565.282 271.747 563.626 271.445 562.121 270.99L565.809 264.252C566.185 263.798 566.787 263.646 567.314 263.949C567.54 264.101 567.69 264.252 567.916 264.479L571.529 271.066C571.077 271.142 570.625 271.217 570.099 271.369V271.369ZM579.281 264.782C578.152 266.599 576.571 268.189 574.765 269.325L571.83 262.208C571.679 261.602 571.98 260.996 572.507 260.769C572.733 260.694 572.959 260.618 573.184 260.618L580.711 261.905C580.334 262.965 579.883 263.949 579.281 264.782Z" fill="white"/>
<path d="M332.324 212.537C331.917 212.273 331.583 211.911 331.352 211.485C331.121 211.06 331 210.583 331 210.098C331 209.613 331.121 209.136 331.352 208.71C331.583 208.284 331.917 207.923 332.324 207.659L364.915 186.47C365.387 186.163 365.938 186 366.501 186C367.064 186 367.615 186.163 368.087 186.47L400.678 207.659C401.084 207.923 401.418 208.284 401.649 208.71C401.881 209.136 402.002 209.613 402.002 210.098C402.002 210.583 401.881 211.06 401.649 211.485C401.418 211.911 401.084 212.273 400.678 212.537L368.087 233.726C367.615 234.033 367.064 234.196 366.501 234.196C365.938 234.196 365.387 234.033 364.915 233.726L332.324 212.537Z" fill="#326CE5"/>
<path d="M371.647 216.276H373.907C374.208 216.276 374.504 216.197 374.765 216.047C375.026 215.896 375.242 215.68 375.393 215.419C375.543 215.158 375.623 214.862 375.623 214.561C375.623 214.26 375.543 213.964 375.393 213.703L367.986 200.874C367.836 200.614 367.619 200.397 367.358 200.247C367.097 200.096 366.802 200.017 366.501 200.017C366.199 200.017 365.904 200.096 365.643 200.247C365.382 200.397 365.166 200.614 365.015 200.874L357.608 213.703C357.458 213.964 357.378 214.26 357.378 214.561C357.378 214.862 357.458 215.158 357.608 215.419C357.759 215.679 357.975 215.896 358.236 216.047C358.497 216.197 358.793 216.276 359.094 216.276H361.355C361.58 216.276 361.803 216.321 362.011 216.407C362.219 216.493 362.408 216.619 362.567 216.779C362.727 216.938 362.853 217.127 362.939 217.335C363.025 217.543 363.07 217.766 363.07 217.992V232.636L364.587 233.623C365.157 233.993 365.821 234.19 366.501 234.19C367.18 234.19 367.845 233.993 368.414 233.623L369.931 232.636V217.992C369.931 217.766 369.976 217.543 370.062 217.335C370.148 217.127 370.274 216.938 370.434 216.779C370.593 216.619 370.782 216.493 370.99 216.407C371.198 216.321 371.421 216.276 371.647 216.276L371.647 216.276Z" fill="#C1D2F7"/>
<path d="M377.792 244.589L369.932 239.479V241.901C372.488 242.973 375.114 243.871 377.792 244.589V244.589ZM369.932 246.255V249.655C372.529 250.448 375.157 251.099 377.759 251.74C386.254 253.834 394.278 255.812 400.731 262.265C401.058 262.592 401.366 262.926 401.67 263.261C402.007 262.619 402.092 261.874 401.908 261.172C401.724 260.471 401.286 259.863 400.678 259.468L387.911 251.168C384.813 250.145 381.654 249.363 378.534 248.594C375.593 247.869 372.714 247.145 369.932 246.255V246.255ZM363.07 243.467C361.956 242.902 360.877 242.273 359.837 241.581L356.918 243.479C358.842 244.884 360.903 246.092 363.07 247.085V243.467ZM372.839 254.289C371.863 254.049 370.894 253.807 369.932 253.564V256.905C370.643 257.084 371.354 257.261 372.064 257.435C380.559 259.529 388.583 261.507 395.036 267.96C395.047 267.971 395.057 267.983 395.068 267.994L397.828 266.2C397.659 266.023 397.501 265.843 397.327 265.669C390.236 258.578 381.392 256.397 372.839 254.289V254.289ZM363.07 251.574C359.338 250.377 355.83 248.57 352.687 246.229L349.829 248.088C353.894 251.44 358.419 253.474 363.07 254.982L363.07 251.574ZM363.07 258.958C356.715 257.293 350.74 255.26 345.634 250.815L342.825 252.641C348.821 258.166 355.954 260.475 363.07 262.304L363.07 258.958ZM369.932 264.024C376.579 265.74 382.83 267.792 388.124 272.508L390.919 270.691C384.732 264.876 377.308 262.554 369.932 260.68L369.932 264.024ZM338.673 255.34L335.9 257.143C335.997 257.243 336.086 257.347 336.185 257.446C343.277 264.537 352.121 266.718 360.673 268.826C368.08 270.651 375.127 272.391 381.088 277.082L383.93 275.235C377.215 269.58 369.214 267.594 361.449 265.68C353.039 263.607 345.093 261.64 338.673 255.34V255.34ZM332.782 260.85C332.459 260.527 332.155 260.198 331.854 259.867C331.549 260.172 331.317 260.542 331.173 260.949C331.029 261.356 330.978 261.79 331.023 262.219C331.068 262.648 331.208 263.062 331.433 263.43C331.658 263.798 331.963 264.111 332.324 264.347L341.921 270.586C346.168 272.345 350.61 273.444 354.978 274.521C361.798 276.202 368.312 277.814 373.955 281.72L376.858 279.833C370.44 275.008 362.995 273.16 355.754 271.375C347.259 269.281 339.234 267.303 332.782 260.85V260.85ZM364.01 284.947C364.649 285.257 365.281 285.584 365.902 285.936C366.655 286.097 367.441 285.953 368.087 285.535L369.698 284.488C364.523 281.027 358.77 279.274 353.038 277.813L364.01 284.947Z" fill="#326CE5"/>
</svg>
