<svg width="700" height="500" viewBox="0 0 700 500" fill="none" xmlns="http://www.w3.org/2000/svg">
<text fill="var(--ifm-color-content)" xml:space="preserve" style="white-space: pre" font-family="Inconsolata" font-size="14" font-weight="900" letter-spacing="0em"><tspan x="133" y="136.183">Application </tspan><tspan x="143.5" y="151.183">template</tspan></text>
<rect x="115" y="115" width="113" height="119" rx="6" stroke="var(--ifm-color-content)" stroke-width="2"/>
<line x1="130.5" y1="177.5" x2="154.5" y2="177.5" stroke="var(--ifm-color-content)" stroke-width="5" stroke-linecap="round"/>
<line x1="130.5" y1="187.5" x2="148.5" y2="187.5" stroke="var(--ifm-color-content)" stroke-width="5" stroke-linecap="round"/>
<line x1="159.5" y1="187.5" x2="213.5" y2="187.5" stroke="var(--ifm-color-content)" stroke-width="5" stroke-linecap="round"/>
<line x1="130.5" y1="206.5" x2="213.5" y2="206.5" stroke="var(--ifm-color-content)" stroke-width="5" stroke-linecap="round"/>
<line x1="192.5" y1="197.5" x2="213.5" y2="197.5" stroke="var(--ifm-color-content)" stroke-width="5" stroke-linecap="round"/>
<line x1="180.5" y1="197.5" x2="181.5" y2="197.5" stroke="var(--ifm-color-content)" stroke-width="5" stroke-linecap="round"/>
<line x1="165.5" y1="216.5" x2="171.5" y2="216.5" stroke="var(--ifm-color-content)" stroke-width="5" stroke-linecap="round"/>
<line x1="130.5" y1="216.5" x2="154.5" y2="216.5" stroke="var(--ifm-color-content)" stroke-width="5" stroke-linecap="round"/>
<line x1="203.5" y1="177.5" x2="213.5" y2="177.5" stroke="var(--ifm-color-content)" stroke-width="5" stroke-linecap="round"/>
<text fill="var(--ifm-color-content)" xml:space="preserve" style="white-space: pre" font-family="Inconsolata" font-size="14" font-weight="900" letter-spacing="0em"><tspan x="159" y="303.183">Cluster&#10;</tspan><tspan x="162.5" y="318.183">values</tspan></text>
<line x1="186.5" y1="343.5" x2="217.5" y2="343.5" stroke="var(--ifm-color-secondary)" stroke-width="5" stroke-linecap="round"/>
<line x1="174.5" y1="366.5" x2="213.5" y2="366.5" stroke="var(--ifm-color-warning)" stroke-width="5" stroke-linecap="round"/>
<line x1="143.5" y1="350.5" x2="172.5" y2="350.5" stroke="var(--ifm-color-success)" stroke-width="5" stroke-linecap="round"/>
<rect x="127" y="282" width="113" height="104" rx="6" stroke="var(--ifm-color-content)" stroke-width="2"/>
<text fill="var(--ifm-color-content)" xml:space="preserve" style="white-space: pre" font-family="Inconsolata" font-size="14" font-weight="900" letter-spacing="0em"><tspan x="490" y="222.183">Application </tspan><tspan x="493.5" y="237.183">configured</tspan></text>
<rect x="472" y="201" width="113" height="119" rx="6" stroke="var(--ifm-color-content)" stroke-width="2"/>
<line x1="487.5" y1="263.5" x2="511.5" y2="263.5" stroke="var(--ifm-color-content)" stroke-width="5" stroke-linecap="round"/>
<line x1="487.5" y1="283.5" x2="526.5" y2="283.5" stroke="var(--ifm-color-warning)" stroke-width="5" stroke-linecap="round"/>
<line x1="487.5" y1="273.5" x2="505.5" y2="273.5" stroke="var(--ifm-color-content)" stroke-width="5" stroke-linecap="round"/>
<line x1="516.5" y1="273.5" x2="570.5" y2="273.5" stroke="var(--ifm-color-content)" stroke-width="5" stroke-linecap="round"/>
<line x1="487.5" y1="292.5" x2="570.5" y2="292.5" stroke="var(--ifm-color-content)" stroke-width="5" stroke-linecap="round"/>
<line x1="549.5" y1="283.5" x2="570.5" y2="283.5" stroke="var(--ifm-color-content)" stroke-width="5" stroke-linecap="round"/>
<line x1="537.5" y1="283.5" x2="538.5" y2="283.5" stroke="var(--ifm-color-content)" stroke-width="5" stroke-linecap="round"/>
<line x1="522.5" y1="302.5" x2="528.5" y2="302.5" stroke="var(--ifm-color-content)" stroke-width="5" stroke-linecap="round"/>
<line x1="522.5" y1="263.5" x2="551.5" y2="263.5" stroke="var(--ifm-color-success)" stroke-width="5" stroke-linecap="round"/>
<line x1="487.5" y1="302.5" x2="511.5" y2="302.5" stroke="var(--ifm-color-content)" stroke-width="5" stroke-linecap="round"/>
<line x1="539.5" y1="302.5" x2="570.5" y2="302.5" stroke="var(--ifm-color-secondary)" stroke-width="5" stroke-linecap="round"/>
<line x1="560.5" y1="263.5" x2="570.5" y2="263.5" stroke="var(--ifm-color-content)" stroke-width="5" stroke-linecap="round"/>
<path d="M245.557 210.607C244.788 210.3 243.915 210.674 243.607 211.443C243.3 212.212 243.674 213.085 244.443 213.393L245.557 210.607ZM285.591 229.379C286.352 229.052 286.705 228.171 286.379 227.409L281.061 215.001C280.734 214.239 279.853 213.886 279.091 214.213C278.33 214.539 277.977 215.421 278.303 216.182L283.03 227.212L272.001 231.939C271.239 232.266 270.886 233.147 271.213 233.909C271.539 234.67 272.421 235.023 273.182 234.697L285.591 229.379ZM244.443 213.393L284.443 229.393L285.557 226.607L245.557 210.607L244.443 213.393Z" fill="var(--ifm-color-content)"/>
<path d="M253.152 314.763C252.468 315.231 252.294 316.165 252.763 316.848C253.231 317.532 254.165 317.706 254.848 317.237L253.152 314.763ZM290.475 292.275C290.626 291.461 290.089 290.677 289.275 290.525L276.004 288.051C275.189 287.899 274.406 288.436 274.254 289.251C274.102 290.065 274.639 290.848 275.454 291L287.25 293.2L285.051 304.996C284.899 305.811 285.436 306.594 286.251 306.746C287.065 306.898 287.848 306.361 288 305.546L290.475 292.275ZM254.848 317.237L289.848 293.237L288.152 290.763L253.152 314.763L254.848 317.237Z" fill="var(--ifm-color-content)"/>
<path d="M407 259.5C406.172 259.5 405.5 260.172 405.5 261C405.5 261.828 406.172 262.5 407 262.5V259.5ZM455.061 262.061C455.646 261.475 455.646 260.525 455.061 259.939L445.515 250.393C444.929 249.808 443.979 249.808 443.393 250.393C442.808 250.979 442.808 251.929 443.393 252.515L451.879 261L443.393 269.485C442.808 270.071 442.808 271.021 443.393 271.607C443.979 272.192 444.929 272.192 445.515 271.607L455.061 262.061ZM407 262.5H454V259.5H407V262.5Z" fill="var(--ifm-color-content)"/>
<path d="M325.108 214.061C329.132 212.362 333.259 211.287 337.496 210.661C341.813 210.024 346.174 209.871 350.521 210.101C356.485 210.418 362.327 211.5 367.844 213.888C371.47 215.456 374.832 217.471 377.859 220.06C382.107 223.691 385.377 228.053 387.82 233.037C389.959 237.4 391.336 242.016 392.113 246.821C392.686 250.359 393.013 253.915 392.817 257.484C392.434 264.45 390.739 271.049 387.022 277.052C385.281 279.864 383.434 282.606 380.92 284.756C378.905 286.478 376.734 288.06 374.469 289.436C370.4 291.908 365.867 293.264 361.214 294.079C358.145 294.617 355.013 294.849 351.898 295.063C349.2 295.247 346.482 295.351 343.781 295.248C336.68 294.977 329.629 294.279 322.88 291.837C318.857 290.381 315.144 288.377 311.856 285.579C308.376 282.617 305.74 279.021 303.447 275.117C301.277 271.422 300.138 267.386 299.439 263.212C299.169 261.599 299.099 259.945 299.034 258.306C298.968 256.641 299.019 254.971 299.02 253.303C299.023 247.619 300.232 242.177 302.364 236.931C304.788 230.964 308.386 225.796 313.177 221.493C316.691 218.337 320.679 215.905 325.108 214.061ZM387.021 255.051C386.909 253.125 386.878 251.19 386.67 249.274C385.809 241.348 382.754 234.523 376.564 229.265C371.377 224.86 365.734 223.754 359.484 226.743C357.151 227.859 354.845 229.036 352.538 230.206C348.957 232.02 345.348 232.3 341.669 230.499C339.261 229.321 336.859 228.124 334.416 227.021C330.77 225.374 326.966 224.654 323.058 225.877C317.318 227.674 312.937 231.307 309.752 236.357C306.313 241.809 305.224 247.893 305.222 254.233C305.222 254.434 305.329 254.635 305.325 254.979C305.345 256.369 305.298 257.763 305.398 259.147C305.658 262.764 306.644 266.187 308.39 269.37C308.764 270.052 309.32 270.634 309.825 271.401C310.219 271.999 310.593 272.61 311.009 273.191C315.192 279.04 320.505 283.449 327.294 285.991C332.458 287.924 337.84 288.667 343.302 288.873C348.415 289.067 353.51 288.763 358.547 287.785C365.299 286.475 371.37 283.787 376.354 278.926C378.656 276.68 380.747 274.258 382.504 271.447C383.016 270.713 383.623 270.028 384.022 269.238C386.244 264.836 387.036 260.115 387.021 255.051Z" fill="#AE9580"/>
<path d="M382.387 271.473C380.747 274.258 378.656 276.68 376.354 278.926C371.37 283.787 365.299 286.475 358.547 287.785C353.51 288.763 348.415 289.067 343.302 288.873C337.84 288.667 332.458 287.924 327.294 285.991C320.505 283.449 315.192 279.04 311.009 273.191C310.594 272.61 310.219 271.999 309.846 271.279C312.999 267.271 316.336 263.583 320.43 260.676C322.122 259.475 323.92 258.421 325.742 257.286C328.163 257.036 329.952 255.917 330.99 253.788C332.251 251.2 332.226 248.543 331.014 245.947C329.927 243.618 327.542 242.28 325.104 242.476C323.532 242.603 322.307 243.433 321.087 244.382C321.002 244.431 320.968 244.482 320.933 244.531C320.932 244.528 320.938 244.531 320.869 244.527C315.056 247.056 309.842 250.379 305.387 254.837C305.33 254.635 305.223 254.434 305.223 254.233C305.224 247.893 306.314 241.809 309.752 236.357C312.937 231.307 317.319 227.674 323.059 225.877C326.966 224.654 330.77 225.374 334.416 227.021C336.859 228.124 339.261 229.321 341.669 230.499C345.348 232.3 348.957 232.02 352.538 230.206C354.846 229.036 357.151 227.859 359.485 226.743C365.734 223.754 371.378 224.86 376.564 229.265C382.754 234.523 385.809 241.348 386.67 249.274C386.879 251.19 386.909 253.125 386.962 255.127C384.229 253.262 381.6 251.259 378.87 249.404C376.714 247.939 374.434 246.658 372.171 245.248C371.799 244.794 371.475 244.38 371.131 243.984C368.74 241.225 364.61 241.282 362.185 244.007C359.169 247.396 359.67 255.787 366.229 256.79C368.354 258.41 370.596 259.811 372.493 261.582C375.9 264.762 379.1 268.164 382.387 271.473ZM349.6 267.013C349.503 266.222 349.78 265.575 350.28 264.964C351.837 263.059 353.404 261.16 354.894 259.203C356.477 257.123 356.424 256.852 354.405 255.12C351.606 252.717 348.288 252.055 344.722 252.361C341.106 252.671 338.273 254.398 336.034 257.256C336.273 257.578 336.462 257.859 336.676 258.119C338.339 260.141 340.062 262.116 341.645 264.198C342.262 265.008 342.568 266.055 342.875 267.091C340.229 266.424 337.542 265.884 334.951 265.046C333.162 264.468 331.496 263.497 329.793 262.665C328.799 262.179 328.115 262.205 327.609 262.854C327.103 263.504 327.206 264.163 327.951 265.015C328.116 265.202 328.281 265.389 328.46 265.562C335.01 271.899 342.825 273.997 351.674 272.305C356.837 271.317 361.225 268.804 364.796 264.916C365.361 264.301 365.582 263.609 365.042 262.893C364.509 262.188 363.788 262.135 363.041 262.559C358.856 264.941 354.388 266.499 349.6 267.013Z" fill="#FEEAC7"/>
<path d="M305.356 254.908C309.842 250.379 315.056 247.056 320.866 244.594C319.643 246.601 319.124 248.688 319.399 251.037C319.79 254.384 322.089 257.17 325.669 257.3C323.919 258.421 322.122 259.475 320.429 260.676C316.336 263.583 312.999 267.271 309.829 271.21C309.32 270.634 308.764 270.052 308.39 269.37C306.644 266.187 305.658 262.764 305.398 259.147C305.298 257.763 305.345 256.369 305.356 254.908Z" fill="#5C6268"/>
<path d="M372.209 245.295C374.434 246.658 376.714 247.939 378.87 249.404C381.6 251.259 384.229 253.262 386.966 255.215C387.036 260.115 386.244 264.836 384.022 269.238C383.623 270.028 383.016 270.713 382.445 271.46C379.1 268.164 375.9 264.762 372.493 261.582C370.596 259.811 368.354 258.41 366.315 256.777C368.387 256.744 370.087 256.018 371.344 254.43C372.415 253.076 373.021 251.468 372.941 249.758C372.872 248.263 372.466 246.782 372.209 245.295Z" fill="#5D6268"/>
<path d="M343.016 266.994C342.568 266.055 342.262 265.008 341.645 264.198C340.062 262.116 338.339 260.14 336.676 258.119C336.462 257.859 336.272 257.578 336.034 257.256C338.272 254.398 341.106 252.671 344.722 252.361C348.288 252.055 351.606 252.717 354.405 255.12C356.424 256.852 356.477 257.123 354.893 259.203C353.404 261.16 351.837 263.059 350.279 264.964C349.779 265.575 349.503 266.222 349.525 267.097C349.173 267.214 348.897 267.264 348.62 267.277C346.743 267.365 344.858 267.595 343.016 266.994Z" fill="#020706"/>
<path d="M342.945 267.042C344.858 267.595 346.743 267.365 348.62 267.277C348.897 267.264 349.173 267.214 349.532 267.175C354.388 266.499 358.855 264.941 363.041 262.559C363.787 262.135 364.509 262.188 365.041 262.893C365.581 263.609 365.36 264.301 364.795 264.916C361.224 268.804 356.837 271.317 351.674 272.305C342.825 273.997 335.009 271.899 328.46 265.562C328.281 265.389 328.115 265.202 327.951 265.015C327.206 264.163 327.103 263.504 327.609 262.854C328.114 262.205 328.799 262.179 329.793 262.665C331.496 263.497 333.161 264.468 334.951 265.046C337.541 265.884 340.228 266.424 342.945 267.042Z" fill="#442D0F"/>
<path d="M372.171 245.248C372.466 246.782 372.872 248.263 372.941 249.758C373.021 251.468 372.415 253.076 371.344 254.43C370.087 256.018 368.387 256.744 366.278 256.725C359.67 255.787 359.169 247.396 362.185 244.007C364.61 241.282 368.74 241.225 371.131 243.984C371.475 244.38 371.799 244.794 372.171 245.248ZM364.672 244.844C364.455 244.963 364.216 245.053 364.025 245.205C362.818 246.164 362.777 248.003 363.921 248.711C364.785 249.245 365.527 248.973 366.218 248.401C367.04 247.721 367.355 246.635 367.003 245.832C366.59 244.888 366.046 244.628 364.672 244.844Z" fill="#432C0E"/>
<path d="M325.742 257.286C322.089 257.17 319.79 254.384 319.399 251.037C319.125 248.688 319.643 246.601 320.935 244.597C320.937 244.531 320.932 244.528 320.979 244.53C321.063 244.483 321.1 244.434 321.136 244.385C322.307 243.433 323.532 242.603 325.104 242.476C327.542 242.28 329.927 243.618 331.014 245.947C332.226 248.543 332.251 251.2 330.989 253.788C329.952 255.917 328.163 257.036 325.742 257.286ZM326 246.741C325.726 245.597 325.219 245.201 324.115 245.27C323.151 245.33 322.181 246.32 322.054 247.373C321.927 248.427 322.344 249.049 323.259 249.42C324.515 249.928 326.275 248.425 326 246.741Z" fill="#432C0E"/>
<path d="M321.087 244.382C321.1 244.434 321.063 244.483 320.98 244.532C320.968 244.482 321.002 244.431 321.087 244.382Z" fill="#5C6268"/>
<path d="M364.742 244.815C366.046 244.628 366.59 244.888 367.004 245.832C367.356 246.635 367.04 247.721 366.218 248.401C365.528 248.973 364.785 249.245 363.922 248.711C362.777 248.003 362.818 246.164 364.025 245.205C364.216 245.053 364.456 244.963 364.742 244.815Z" fill="#885F24"/>
<path d="M326.001 246.82C326.275 248.425 324.515 249.928 323.259 249.42C322.344 249.049 321.927 248.427 322.054 247.373C322.181 246.32 323.151 245.33 324.115 245.27C325.219 245.201 325.726 245.597 326.001 246.82Z" fill="#885F24"/>
</svg>
